<svg width="26" height="26" viewBox="0 0 26 26" fill="none" xmlns="http://www.w3.org/2000/svg">
<path d="M3.29813 15.5941C2.43008 17.704 2.42999 20.0871 3.29813 22.1971C5.40813 23.0653 7.79128 23.0652 9.90122 22.1972L7.7711 20.067C7.0028 20.2201 6.20613 20.2223 5.42756 20.0677C5.27294 19.2891 5.2752 18.4925 5.42822 17.7242L3.29813 15.5941ZM5.84098 8.34057L1.81688 8.59343L-7.12968e-06 10.4103L15.0849 25.4953L16.9018 23.6784L17.1547 19.6543L22.6274 14.1815C25.9115 10.8975 26.3441 5.74247 24.0839 1.41138C19.7528 -0.848877 14.5978 -0.416214 11.3137 2.86783L5.84098 8.34057ZM4.46023 11.0993L7.01402 10.9388L13.1993 4.75344C15.3846 2.56816 18.8574 2.05732 22.0815 3.41377C23.438 6.63788 22.9271 10.1106 20.7418 12.2959L14.5565 18.4812L14.396 21.0351L4.46023 11.0993ZM15.0849 10.4103C16.1264 11.4517 17.8148 11.4517 18.8562 10.4103C19.8976 9.3689 19.8976 7.68049 18.8562 6.63906C17.8148 5.59764 16.1264 5.59766 15.085 6.63906C14.0436 7.68041 14.0435 9.36889 15.0849 10.4103Z" fill="white"/>
</svg>
