<svg xmlns="http://www.w3.org/2000/svg" viewBox="0 0 119.5 125.4">
<!-- SVG created with Arrow, by QuiverAI (https://quiver.ai) -->
  <path fill="#FDFEFF" d="m53 9.2c-20 7.4-31.6 25.4-31.4 46.8 0.1 25.6 17.1 42.9 39.4 42.8 18.6-0.1 38.5-13.9 39-37.8 0-14-9-26.6-22.1-31.5-4.1-2.1-13.5-3.2-21.9-0.6s-15.6 8.6-22 17.9l-0.3-0.3c3.5-8.1 12.8-23.3 28.6-26.7 2.8-0.7 5.8-1.1 8.9-1.1 16.8-0.1 42.3 11.2 42.4 41.3-0.2 27.5-20.5 52.4-52.8 52.5-30.2 0.1-52.2-23.6-52.3-51.6 0-23.9 15.4-41.4 34.6-49 3-1.2 6.5-2.3 9.8-2.9l0.1 0.2z"/>
</svg>
