<svg width="17" height="15" viewBox="0 0 17 15" fill="none" xmlns="http://www.w3.org/2000/svg">
<path d="M13.8501 5.77034L14.035 5.34608C14.3647 4.5896 14.9584 3.98731 15.6992 3.65781L16.2689 3.40442C16.577 3.2674 16.577 2.81911 16.2689 2.68209L15.7311 2.44286C14.9712 2.10488 14.3669 1.4803 14.0429 0.698123L13.853 0.239648C13.7206 -0.0798827 13.2794 -0.0798827 13.147 0.239648L12.9571 0.698123C12.6332 1.4803 12.0288 2.10488 11.2689 2.44286L10.731 2.68209C10.423 2.81911 10.423 3.2674 10.731 3.40442L11.3008 3.65781C12.0416 3.98731 12.6353 4.5896 12.965 5.34608L13.1498 5.77034C13.2852 6.08094 13.7148 6.08094 13.8501 5.77034ZM2.84995 11.25H4.46549L4.91549 10.125H7.08442L7.53443 11.25H9.14993L6.74992 5.25H5.24995L2.84995 11.25ZM5.99995 7.4139L6.48442 8.625H5.51549L5.99995 7.4139ZM9.75 11.25V5.25H11.25V11.25H9.75ZM0.75 1.5C0.33579 1.5 0 1.83579 0 2.25V14.25C0 14.6642 0.33579 15 0.75 15H14.25C14.6642 15 15 14.6642 15 14.25V7.5H13.5V13.5H1.5V3H9V1.5H0.75Z" fill="white"/>
</svg>
